<svg xmlns="http://www.w3.org/2000/svg" viewBox="0 0 464.88 134.41">
<rect x="360.08" y="51.04" width="15.58" height="83.38" fill="#f5f5f6"/>
<path d="M329.88,37V33.9c0-13.44,1.56-19.09,14.61-19.09h3.9V0h-4.48c-23,0-29.61,9.74-29.61,30v7h-31V33.9c0-13.44,1.55-19.09,14.6-19.09h3.9V0h-4.48c-23,0-29.61,9.74-29.61,30V134.41h15.59V51h31v83.37h15.58V51h30.2V37Z" fill="#f5f5f6"/>
<polygon fill="#f5f5f6" points="429.43 84.55 460.98 37.01 442.67 37.01 420.27 71.49 397.87 37.01 379.56 37.01 411.11 84.55 375.66 134.41 393.97 134.41 420.27 98.18 446.57 134.41 464.88 134.41 429.43 84.55"/>
<rect fill="#f5f5f6" x="189.57" y="119.22" width="64.29" height="15.2"/>
<polygon points="253.86 15.2 253.86 0 172.82 0 172.82 119.22 189.57 119.22 189.57 72.47 248.01 72.47 248.01 57.27 189.57 57.27 189.57 15.2 253.86 15.2" fill="#f5f5f6"/>
<path d="M0,42.42v92H92v-92Zm73.59,55.2H36.8V116H18.4V97.62H36.8V60.82H73.59Z" fill="#f5f5f6"/></svg>
